<svg width="124" height="43" viewBox="0 0 124 43" fill="none" xmlns="http://www.w3.org/2000/svg">
<g clip-path="url(#clip0_498_7396)">
<path d="M28.7843 23.0092C28.7332 17.6676 33.1603 15.1011 33.3595 14.9789C30.8676 11.3483 26.9971 10.8492 25.6184 10.7932C22.3249 10.4571 19.1897 12.7282 17.5148 12.7282C15.84 12.7282 13.2613 10.839 10.5295 10.8951C6.93468 10.946 3.62072 12.9777 1.76716 16.1858C-1.9604 22.6324 0.817396 32.2056 4.45815 37.4454C6.24023 40.0067 8.35421 42.894 11.1422 42.787C13.8281 42.6801 14.8391 41.0557 18.0765 41.0557C21.3139 41.0557 22.2279 42.787 25.0618 42.7361C27.9469 42.6801 29.7749 40.1188 31.5417 37.5472C33.5739 34.5684 34.4165 31.6913 34.4675 31.5385C34.4012 31.5131 28.8456 29.3897 28.7843 23.0092Z" fill="black"/>
<path d="M23.4585 7.32034C24.9393 5.53301 25.935 3.05314 25.6644 0.578369C23.5351 0.664935 20.9565 1.99398 19.4297 3.78132C18.0612 5.35988 16.8612 7.88557 17.188 10.3094C19.5522 10.4927 21.9828 9.10259 23.4585 7.32034ZM47.4579 28.2592L45.0069 35.6682H41.8563L49.8782 12.1222H53.5547L61.6073 35.6682H58.3495L55.827 28.2592H47.4579ZM55.1989 25.8811L52.8909 19.1035C52.365 17.5657 52.0177 16.1705 51.6654 14.8058H51.599C51.2467 16.201 50.8637 17.6319 50.4093 19.0679L48.1012 25.876L55.1989 25.8811ZM63.997 24.2771C63.997 22.113 63.9306 20.3613 63.854 18.7573H66.6216L66.7646 21.6598H66.831C68.0922 19.5975 70.0887 18.3753 72.8563 18.3753C76.9566 18.3753 80.0357 21.8329 80.0357 26.9709C80.0357 33.0509 76.3235 36.0501 72.3304 36.0501C70.0887 36.0501 68.1279 35.0724 67.1118 33.3971H67.0454V42.5833H63.997V24.2771ZM67.0403 28.7837C67.0403 29.2419 67.1067 29.6544 67.1833 30.0414C67.745 32.1699 69.5985 33.6415 71.8095 33.6415C75.0673 33.6415 76.9617 30.9885 76.9617 27.1083C76.9617 23.717 75.1746 20.8247 71.9168 20.8247C69.8181 20.8247 67.8573 22.3268 67.2548 24.6336C67.1475 25.0155 67.0454 25.4738 67.0454 25.8913L67.0403 28.7837ZM83.222 24.2771C83.222 22.113 83.1556 20.3613 83.079 18.7573H85.8466L85.9896 21.6598H86.056C87.3172 19.5975 89.3138 18.3753 92.0813 18.3753C96.1816 18.3753 99.2607 21.8329 99.2607 26.9709C99.2607 33.0509 95.5485 36.0501 91.5554 36.0501C89.3138 36.0501 87.353 35.0724 86.3368 33.3971H86.2704V42.5833H83.222V24.2771ZM86.2704 28.7837C86.2704 29.2419 86.3368 29.6544 86.4134 30.0414C86.9751 32.1699 88.8287 33.6415 91.0397 33.6415C94.2974 33.6415 96.1919 30.9885 96.1919 27.1083C96.1919 23.717 94.4047 20.8247 91.1469 20.8247C89.0482 20.8247 87.0874 22.3268 86.4849 24.6336C86.3777 25.0155 86.2755 25.4738 86.2755 25.8913L86.2704 28.7837ZM102.452 10.8645H105.536V35.6631H102.452V10.8645ZM111.735 27.7703C111.802 31.9255 114.467 33.6415 117.546 33.6415C119.752 33.6415 121.085 33.2596 122.239 32.7708L122.765 34.9706C121.682 35.4594 119.824 36.0196 117.127 36.0196C111.909 36.0196 108.789 32.5977 108.789 27.4953C108.789 22.393 111.802 18.3753 116.739 18.3753C122.275 18.3753 123.745 23.2281 123.745 26.3394C123.745 26.9709 123.679 27.4546 123.638 27.7703H111.735ZM120.773 25.5705C120.809 23.6151 119.967 20.5751 116.499 20.5751C113.379 20.5751 112.016 23.442 111.771 25.5705H120.773Z" fill="black"/>
</g>
<defs>
<clipPath id="clip0_498_7396">
<rect width="123.75" height="42.2137" fill="white" transform="translate(0 0.578369)"/>
</clipPath>
</defs>
</svg>
