<svg width="128" height="27" viewBox="0 0 128 27" fill="none" xmlns="http://www.w3.org/2000/svg">
<g clip-path="url(#clip0_498_7399)">
<path d="M4.24924 17.8351C4.24924 19.331 4.57265 20.4795 4.99538 21.1744C5.54961 22.0845 6.37627 22.47 7.21903 22.47C8.30603 22.47 9.30044 22.1962 11.2168 19.5054C12.752 17.3487 14.561 14.3214 15.7782 12.4236L17.8394 9.20825C19.2713 6.97525 20.9287 4.49293 22.8289 2.81034C24.3802 1.43703 26.0537 0.674072 27.7379 0.674072C30.5654 0.674072 33.2588 2.33758 35.32 5.45752C37.5759 8.87446 38.671 13.1783 38.671 17.6198C38.671 20.2602 38.1583 22.2003 37.286 23.733C36.4433 25.2153 34.8007 26.6962 32.0376 26.6962V22.47C34.4035 22.47 34.9939 20.2629 34.9939 17.737C34.9939 14.1375 34.1673 10.1429 32.3462 7.28861C31.0539 5.26405 29.3791 4.02698 27.5366 4.02698C25.5437 4.02698 23.9401 5.55289 22.1378 8.27363C21.1796 9.71916 20.196 11.4808 19.0915 13.4685L17.8757 15.6552C15.4333 20.0517 14.8146 21.0531 13.5934 22.7057C11.453 25.5995 9.6252 26.6962 7.21903 26.6962C4.36465 26.6962 2.55969 25.4414 1.44182 23.5504C0.529275 22.0095 0.0810547 19.9877 0.0810547 17.6838L4.24924 17.8351Z" fill="#0081FB"/>
<path d="M3.36719 5.75589C5.27816 2.76538 8.03593 0.674072 11.199 0.674072C13.0308 0.674072 14.8518 1.22449 16.7534 2.8008C18.8335 4.52426 21.0504 7.36218 23.8162 12.0394L24.808 13.7178C27.202 17.767 28.5642 19.8501 29.3613 20.8324C30.3866 22.094 31.1045 22.47 32.0372 22.47C34.4031 22.47 34.9936 20.2629 34.9936 17.737L38.6706 17.6198C38.6706 20.2602 38.158 22.2003 37.2857 23.733C36.4429 25.2153 34.8003 26.6962 32.0372 26.6962C30.3195 26.6962 28.7977 26.3175 27.1148 24.7057C25.8212 23.4687 24.3087 21.2711 23.1452 19.2956L19.6843 13.4263C17.9478 10.4807 16.3548 8.28453 15.4329 7.28997C14.4412 6.22047 13.1663 4.9289 11.1319 4.9289C9.48526 4.9289 8.08692 6.10194 6.91672 7.89624L3.36719 5.75589Z" fill="url(#paint0_linear_498_7399)"/>
<path d="M11.1322 4.9289C9.48563 4.9289 8.08729 6.10194 6.91709 7.89624C5.26243 10.4317 4.24924 14.2083 4.24924 17.8351C4.24924 19.331 4.57265 20.4795 4.99538 21.1744L1.44182 23.5504C0.529275 22.0095 0.0810547 19.9877 0.0810547 17.6838C0.0810547 13.4944 1.21368 9.12787 3.36756 5.75589C5.27853 2.76538 8.0363 0.674072 11.1993 0.674072L11.1322 4.9289Z" fill="url(#paint1_linear_498_7399)"/>
<path d="M46.7734 1.49707H51.5952L59.7933 16.5545L67.9928 1.49707H72.7098V26.2386H68.7765V7.27644L61.5862 20.4074H57.8957L50.7068 7.27644V26.2386H46.7734V1.49707ZM85.0345 10.722C82.2137 10.722 80.5148 12.8773 80.1082 15.5463H89.6818C89.4845 12.797 87.9225 10.722 85.0345 10.722ZM76.2084 17.0668C76.2084 11.4509 79.7834 7.36364 85.103 7.36364C90.3354 7.36364 93.4595 11.3991 93.4595 17.3665V18.4632H80.1082C80.5819 21.3666 82.4794 23.323 85.5391 23.323C87.9802 23.323 89.506 22.5668 90.9527 21.184L93.0421 23.7821C91.0734 25.62 88.5693 26.68 85.3996 26.68C79.6411 26.68 76.2084 22.417 76.2084 17.0668ZM98.2289 11.0762H94.6082V7.80642H98.2289V2.39899H102.024V7.80642H107.525V11.0762H102.024V19.3638C102.024 22.1935 102.915 23.199 105.105 23.199C106.105 23.199 106.678 23.1118 107.525 22.9688V26.2031C106.47 26.5056 105.463 26.6446 104.374 26.6446C100.277 26.6446 98.2289 24.3721 98.2289 19.8229V11.0762ZM123.505 14.2561C122.743 12.3024 121.042 10.8637 118.544 10.8637C115.296 10.8637 113.217 13.203 113.217 17.0136C113.217 20.7289 115.131 23.1813 118.388 23.1813C120.949 23.1813 122.776 21.669 123.505 19.7875V14.2561ZM127.3 26.2386H123.575V23.6581C122.533 25.1772 120.639 26.68 117.569 26.68C112.634 26.68 109.335 22.4851 109.335 17.0136C109.335 11.4904 112.713 7.36364 117.779 7.36364C120.283 7.36364 122.248 8.38 123.575 10.1743V7.80642H127.3V26.2386Z" fill="#192830"/>
</g>
<defs>
<linearGradient id="paint0_linear_498_7399" x1="8.26675" y1="16.6143" x2="34.8399" y2="17.9363" gradientUnits="userSpaceOnUse">
<stop stop-color="#0064E1"/>
<stop offset="0.4" stop-color="#0064E1"/>
<stop offset="0.83" stop-color="#0073EE"/>
<stop offset="1" stop-color="#0082FB"/>
</linearGradient>
<linearGradient id="paint1_linear_498_7399" x1="6.11995" y1="19.6117" x2="6.11995" y2="9.66602" gradientUnits="userSpaceOnUse">
<stop stop-color="#0082FB"/>
<stop offset="1" stop-color="#0064E0"/>
</linearGradient>
<clipPath id="clip0_498_7399">
<rect width="127.219" height="26.0222" fill="white" transform="translate(0.0810547 0.674072)"/>
</clipPath>
</defs>
</svg>
