<svg width="151" height="44" viewBox="0 0 151 44" fill="none" xmlns="http://www.w3.org/2000/svg">
<g clip-path="url(#clip0_498_7404)">
<path d="M32.6268 8.21433C32.5976 7.9989 32.4118 7.87938 32.2575 7.86637C32.1045 7.85336 29.106 7.80722 29.106 7.80722C29.106 7.80722 26.5983 5.34076 26.3505 5.08986C26.1029 4.83896 25.6191 4.9147 25.4309 4.97151C25.4286 4.97269 24.96 5.11945 24.1713 5.3668C24.0392 4.93364 23.8452 4.40105 23.5683 3.8661C22.6755 2.14054 21.3679 1.22805 19.788 1.22569C19.7857 1.22569 19.7845 1.22569 19.7822 1.22569C19.6723 1.22569 19.5637 1.23634 19.4539 1.24581C19.4071 1.189 19.3604 1.13338 19.3113 1.07893C18.623 0.333322 17.7408 -0.0300166 16.6833 0.00193824C14.643 0.0611139 12.6109 1.55352 10.9633 4.20459C9.80407 6.0698 8.92181 8.41319 8.67176 10.2275C6.32882 10.9624 4.69052 11.4761 4.6543 11.4879C3.47174 11.8643 3.43435 11.9009 3.2801 13.0301C3.16558 13.8833 0.0712891 38.117 0.0712891 38.117L26.0024 42.6593L37.2413 39.8295C37.2413 39.8295 32.656 8.42976 32.6268 8.21433ZM22.873 5.77393C22.2759 5.96092 21.5969 6.17396 20.8607 6.40474C20.8456 5.35852 20.7229 3.9028 20.2414 2.64472C21.7898 2.94178 22.5516 4.71587 22.873 5.77393ZM19.5041 6.8308C18.1451 7.25684 16.6622 7.72197 15.1747 8.18831C15.593 6.5657 16.3865 4.9502 17.361 3.89096C17.7233 3.49685 18.2304 3.05777 18.831 2.80686C19.3954 3.99984 19.5181 5.68871 19.5041 6.8308ZM16.7241 1.37718C17.2032 1.36653 17.6064 1.47305 17.9511 1.70265C17.3996 1.99261 16.8667 2.4092 16.3666 2.95243C15.0706 4.36082 14.0774 6.54676 13.6813 8.65578C12.4461 9.04277 11.2378 9.42272 10.1254 9.77068C10.8277 6.4509 13.5749 1.46949 16.7241 1.37718Z" fill="#95BF47"/>
<path d="M32.2591 7.86761C32.1061 7.8546 29.1076 7.80846 29.1076 7.80846C29.1076 7.80846 26.5999 5.342 26.3522 5.0911C26.2599 4.99759 26.1348 4.94907 26.0039 4.92896L26.0051 42.6582L37.243 39.8296C37.243 39.8296 32.6576 8.431 32.6284 8.21557C32.5991 8.00014 32.4122 7.88062 32.2591 7.86761Z" fill="#5E8E3E"/>
<path d="M19.7738 13.72L18.4686 18.6658C18.4686 18.6658 17.0126 17.9948 15.2867 18.1049C12.7556 18.2671 12.7287 19.8837 12.7544 20.2897C12.8923 22.5016 18.638 22.9845 18.9606 28.1659C19.2141 32.2419 16.8256 35.0303 13.3843 35.2504C9.25347 35.5143 6.97949 33.0467 6.97949 33.0467L7.85474 29.2761C7.85474 29.2761 10.1439 31.0253 11.9761 30.9081C13.1728 30.8312 13.6004 29.8454 13.5572 29.1482C13.3773 26.2628 8.6984 26.4332 8.40279 21.6921C8.15386 17.7025 10.7411 13.6596 16.4493 13.2951C18.6485 13.1519 19.7738 13.72 19.7738 13.72Z" fill="white"/>
<path d="M52.0415 24.0767C50.7492 23.3665 50.0851 22.7678 50.0851 21.9449C50.0851 20.8978 51.0076 20.2252 52.4483 20.2252C54.1254 20.2252 55.6228 20.9354 55.6228 20.9354L56.8038 17.2706C56.8038 17.2706 55.7179 16.4102 52.5213 16.4102C48.073 16.4102 44.9901 18.9903 44.9901 22.6175C44.9901 24.6741 46.4296 26.2448 48.35 27.3658C49.9008 28.2626 50.4548 28.8989 50.4548 29.8333C50.4548 30.8052 49.6795 31.5905 48.24 31.5905C46.0946 31.5905 44.0686 30.4683 44.0686 30.4683L42.8135 34.1331C42.8135 34.1331 44.6853 35.4044 47.8343 35.4044C52.4124 35.4044 55.6982 33.1236 55.6982 29.0104C55.697 26.8059 54.0362 25.2352 52.0415 24.0767Z" fill="black"/>
<path d="M70.2795 16.3738C68.0274 16.3738 66.2553 17.4585 64.89 19.1031L64.8157 19.0655L66.7721 8.7085H61.6771L56.7305 35.0687H61.8255L63.5234 26.0582C64.1875 22.6552 65.9226 20.5622 67.5476 20.5622C68.6915 20.5622 69.1354 21.3474 69.1354 22.4697C69.1354 23.1799 69.0612 24.0403 68.914 24.7505L66.9947 35.0699H72.0899L74.0829 24.4136C74.3047 23.2914 74.4529 21.9462 74.4529 21.0481C74.4507 18.1311 72.9372 16.3738 70.2795 16.3738Z" fill="black"/>
<path d="M85.969 16.3738C79.8399 16.3738 75.7803 21.9825 75.7803 28.2263C75.7803 32.2268 78.2162 35.442 82.7946 35.442C88.8121 35.442 92.8731 29.9836 92.8731 23.5895C92.8731 19.8883 90.7313 16.3738 85.969 16.3738ZM83.4587 31.4802C81.7234 31.4802 80.9849 29.9847 80.9849 28.1147C80.9849 25.1613 82.4991 20.338 85.2677 20.338C87.0767 20.338 87.6664 21.9085 87.6664 23.4416C87.6664 26.6193 86.1543 31.4802 83.4587 31.4802Z" fill="black"/>
<path d="M105.905 16.3738C102.466 16.3738 100.514 19.4399 100.514 19.4399H100.441L100.737 16.6731H96.233C96.0118 18.5431 95.6047 21.3838 95.1996 23.5156L91.6553 42.3972H96.7503L98.1522 34.7694H98.2638C98.2638 34.7694 99.3091 35.4421 101.254 35.4421C107.235 35.4421 111.148 29.2358 111.148 22.9533C111.148 19.4775 109.633 16.3738 105.905 16.3738ZM101.032 31.5542C99.7092 31.5542 98.9265 30.8064 98.9265 30.8064L99.7759 25.9831C100.367 22.7678 102.028 20.6361 103.8 20.6361C105.351 20.6361 105.831 22.094 105.831 23.478C105.831 26.8059 103.874 31.5542 101.032 31.5542Z" fill="black"/>
<path d="M118.42 8.97021C116.796 8.97021 115.504 10.2791 115.504 11.9612C115.504 13.4943 116.464 14.5414 117.903 14.5414H117.977C119.565 14.5414 120.93 13.4567 120.968 11.5504C120.968 10.0548 119.971 8.97021 118.42 8.97021Z" fill="black"/>
<path d="M111.296 35.0688H116.39L119.861 16.7859H114.729L111.296 35.0688Z" fill="black"/>
<path d="M132.819 16.7483H129.274L129.458 15.8878C129.754 14.1305 130.788 12.5599 132.486 12.5599C133.392 12.5599 134.11 12.8217 134.11 12.8217L135.107 8.78363C135.107 8.78363 134.221 8.33521 132.337 8.33521C130.528 8.33521 128.721 8.85871 127.354 10.0549C125.618 11.5504 124.806 13.7185 124.4 15.8878L124.254 16.7483H121.89L121.152 20.6373H123.515L120.82 35.0699H125.915L128.61 20.6373H132.117L132.819 16.7483Z" fill="black"/>
<path d="M145.075 16.7859C145.075 16.7859 141.89 24.9125 140.46 29.3485H140.386C140.289 27.9199 139.131 16.7859 139.131 16.7859H133.778L136.843 33.5732C136.918 33.9466 136.88 34.1719 136.732 34.4337C136.14 35.5923 135.144 36.7145 133.963 37.5374C133.003 38.2475 131.933 38.696 131.084 38.9953L132.487 43.3703C133.521 43.1461 135.661 42.2857 137.47 40.5659C139.796 38.3602 141.937 34.9572 144.152 30.3205L150.391 16.7847H145.075V16.7859Z" fill="black"/>
</g>
<defs>
<clipPath id="clip0_498_7404">
<rect width="150.929" height="43.3703" fill="white" transform="translate(0.0712891)"/>
</clipPath>
</defs>
</svg>
