<svg width="147" height="49" viewBox="0 0 147 49" fill="none" xmlns="http://www.w3.org/2000/svg">
<path d="M18.847 36.501L18.37 34.4535C18.3223 34.4535 18.2984 34.4535 18.2508 34.4535C11.96 34.4535 6.83608 29.563 6.83608 23.5574C6.83608 17.5518 11.96 12.6613 18.2508 12.6613C24.5415 12.6613 29.6635 17.5518 29.6635 23.5574C29.6635 23.6031 29.6635 23.6715 29.6635 23.7172L31.7605 24.172C32.4283 24.309 33.0006 24.6725 33.4042 25.173C33.4758 24.6497 33.4996 24.1036 33.4996 23.5574C33.4996 15.5271 26.6622 9 18.2508 9C9.83926 9 3 15.5271 3 23.5574C3 31.5877 9.83926 38.1166 18.2508 38.1166C18.7993 38.1166 19.3221 38.0937 19.8468 38.0481C19.346 37.6618 18.9901 37.1385 18.847 36.501Z" fill="#303FE1"/>
<path d="M16.5355 26.8341C15.2715 26.2424 14.4148 24.9903 14.4148 23.5574C14.4148 21.5327 16.1301 19.8961 18.2509 19.8961C19.7754 19.8961 21.0871 20.7601 21.7053 21.9875L25.8753 22.8972C25.5175 19.1674 22.2539 16.2559 18.2509 16.2559C14.0093 16.2559 10.6025 19.5309 10.6025 23.5574C10.6025 27.3557 13.6277 30.4726 17.5115 30.8361L16.5355 26.8341Z" fill="#303FE1"/>
<path d="M28.4494 30.7012L31.8085 27.4929C32.3332 26.9924 32.0709 26.1057 31.3315 25.9459L19.0601 23.2855C18.9904 23.2627 18.9189 23.2627 18.8473 23.2627C18.2511 23.2627 17.7741 23.786 17.9172 24.3777L20.7057 36.0922C20.8011 36.547 21.2286 36.7963 21.634 36.7963C21.8725 36.7963 22.111 36.7068 22.3018 36.5242L25.7086 33.272L30.1886 37.5479C30.5702 37.9114 31.0472 38.0941 31.5462 38.0941C32.047 38.0941 32.524 37.9114 32.9056 37.5479C33.6431 36.842 33.6431 35.683 32.9056 34.9543L28.4494 30.7012Z" fill="#303FE1"/>
<path d="M41.6823 25.624H44.8581V13.8046H49.4935V10.8403H37.0469V13.8046H41.6823V25.624ZM56.3931 15.5039C56.2353 15.4472 56.0381 15.4284 55.7816 15.4284C54.3811 15.4284 53.2568 16.1647 52.8031 17.0899H52.7834V15.5416H49.726V25.624H52.8031V21.3569C52.8031 19.5444 53.671 18.3549 55.6633 18.3549C55.9197 18.3549 56.1564 18.3738 56.3931 18.4115V15.5039ZM58.0068 15.5416V21.8667C58.0068 22.9807 58.3422 23.9247 58.9931 24.6988C59.6637 25.454 60.6303 25.8316 61.873 25.8316C63.1354 25.8316 64.1217 25.3407 64.812 24.3778H64.8318V25.624H67.8694V15.5416H64.7923V21.1681C64.7923 22.2821 64.1414 23.0939 62.8987 23.0939C61.656 23.0939 61.084 22.3576 61.084 21.1681V15.5416H58.0068ZM80.8421 21.3947C80.8618 21.1681 80.8815 20.8094 80.8815 20.3373C80.8815 18.8458 80.3884 17.6185 79.4219 16.6934C78.4553 15.7682 77.1929 15.2962 75.6346 15.2962C74.1158 15.2962 72.7942 15.806 71.6896 16.8444C70.6047 17.8829 70.0524 19.1101 70.0524 20.5639C70.0524 22.1121 70.6047 23.3771 71.7093 24.3778C72.8336 25.3596 74.1947 25.8505 75.8319 25.8505C77.9819 25.8505 79.481 25.0953 80.3687 23.566L78.1397 22.1688C77.6663 22.9051 76.7195 23.3771 75.7924 23.3771C74.4708 23.3771 73.3662 22.6219 73.1887 21.3947H80.8421ZM73.2676 19.45C73.3268 19.0535 73.5635 18.657 73.9777 18.2793C74.3919 17.8829 74.9245 17.694 75.5557 17.694C76.9562 17.694 77.7255 18.5626 77.8044 19.45H73.2676ZM100.271 25.624L96.7791 19.8464C98.8897 19.1101 99.9549 17.6752 99.9549 15.5228C99.9549 14.0312 99.442 12.8795 98.3966 12.0676C97.3709 11.2557 96.069 10.8403 94.491 10.8403H88.3959V25.624H91.5914V20.3185H93.5245L96.72 25.624H100.271ZM91.5914 13.7291H94.2346C95.6351 13.7291 96.72 14.2766 96.72 15.5794C96.72 16.8633 95.5956 17.4864 94.2543 17.4864H91.5914V13.7291ZM101.78 18.2416C101.78 20.3751 102.55 22.1688 104.108 23.6415C105.666 25.1142 107.54 25.8505 109.769 25.8505C111.998 25.8505 113.892 25.1142 115.45 23.6226C117.028 22.131 117.817 20.2996 117.817 18.1661C117.817 16.0514 117.048 14.2578 115.489 12.8039C113.951 11.3501 112.077 10.6138 109.848 10.6138C107.619 10.6138 105.725 11.3501 104.147 12.8417C102.569 14.3333 101.78 16.1269 101.78 18.2416ZM106.436 14.9375C107.363 14.0312 108.487 13.578 109.809 13.578C111.13 13.578 112.255 14.0312 113.182 14.9375C114.109 15.8437 114.562 16.9388 114.562 18.2227C114.562 19.5066 114.109 20.6017 113.182 21.5268C112.255 22.4331 111.13 22.8862 109.809 22.8862C108.487 22.8862 107.363 22.4331 106.436 21.5268C105.508 20.6017 105.055 19.5066 105.055 18.2227C105.055 16.9388 105.508 15.8437 106.436 14.9375ZM121.869 25.624L123.013 22.6408H129.858L131.022 25.624H134.316L128.398 10.8403H124.552L118.654 25.624H121.869ZM126.445 13.8046L128.773 19.8087H124.118L126.445 13.8046ZM140.693 16.6934C138.938 16.2213 138.208 15.7682 138.208 14.8808C138.208 13.9934 138.997 13.3704 140.259 13.3704C141.679 13.3704 142.646 13.9745 143.179 15.1829L145.822 13.8046C144.934 11.7655 142.981 10.6138 140.397 10.6138C138.918 10.6138 137.636 11.0291 136.59 11.8788C135.545 12.7095 135.012 13.7669 135.012 15.0696C135.012 16.1647 135.407 17.071 136.196 17.8073C136.906 18.487 138.168 19.0912 139.963 19.601C141.107 19.922 141.877 20.2241 142.271 20.4884C142.685 20.7338 142.883 21.0737 142.883 21.508C142.883 22.4142 141.896 23.0751 140.535 23.0751C138.977 23.0751 137.774 22.3009 137.162 21.0171L134.401 22.3765C135.328 24.51 137.537 25.8505 140.437 25.8505C142.212 25.8505 143.593 25.4351 144.599 24.5855C145.605 23.7359 146.098 22.6219 146.098 21.2814C146.098 18.9213 144.382 17.694 140.693 16.6934Z" fill="#151A5D"/>
<path d="M42.9844 37.94H43.613V32.645H45.5899V32.0675H41V32.645H42.9844V37.94ZM48.903 35.5625L50.6526 37.94H51.41L49.5771 35.4575C50.0467 35.3975 50.433 35.225 50.7435 34.9325C51.0541 34.64 51.2055 34.2575 51.2055 33.7775C51.2055 33.29 51.0313 32.8775 50.6754 32.555C50.327 32.2325 49.8119 32.0675 49.1227 32.0675H47.0701V37.94H47.6912V35.5625H48.903ZM47.6912 32.645H49.0848C50.1225 32.645 50.5769 33.14 50.5769 33.8C50.5769 34.13 50.4481 34.415 50.1982 34.6475C49.9483 34.88 49.5695 35 49.0697 35H47.6912V32.645ZM56.7704 32.0675V35.69C56.7704 36.7925 56.2099 37.4225 55.1874 37.4225C54.1952 37.4225 53.559 36.875 53.559 35.6525V32.0675H52.9379V35.6825C52.9379 36.3875 53.1349 36.95 53.5211 37.37C53.9074 37.79 54.4603 38 55.1647 38C56.5659 38 57.3915 37.1375 57.3915 35.645V32.0675H56.7704ZM60.0813 32.0675H59.4602V37.94H62.8912V37.3625H60.0813V32.0675ZM68.1299 32.0675H67.4179L65.5244 34.8725L63.6536 32.0675H62.9038L65.1987 35.465V37.94H65.8274V35.4575L68.1299 32.0675ZM72.2578 36.44H75.4919L76.1356 37.94H76.7946L74.2346 32.0675H73.5302L70.9702 37.94H71.6064L72.2578 36.44ZM72.4926 35.8775L73.871 32.705L75.2495 35.8775H72.4926ZM78.894 37.94H79.5226V32.645H81.4994V32.0675H76.9096V32.645H78.894V37.94ZM84.2977 37.94H84.9264V32.645H86.9032V32.0675H82.3133V32.645H84.2977V37.94ZM90.2161 35.5625L91.9657 37.94H92.7231L90.8902 35.4575C91.3598 35.3975 91.7461 35.225 92.0566 34.9325C92.3672 34.64 92.5186 34.2575 92.5186 33.7775C92.5186 33.29 92.3444 32.8775 91.9885 32.555C91.6401 32.2325 91.125 32.0675 90.4358 32.0675H88.3832V37.94H89.0043V35.5625H90.2161ZM89.0043 32.645H90.3979C91.4356 32.645 91.89 33.14 91.89 33.8C91.89 34.13 91.7612 34.415 91.5113 34.6475C91.2614 34.88 90.8826 35 90.3828 35H89.0043V32.645ZM94.9478 32.0675H94.3268V37.94H94.9478V32.0675ZM97.0899 37.94H99.294C99.8999 37.94 100.4 37.805 100.794 37.535C101.195 37.265 101.392 36.86 101.392 36.3275C101.392 36.05 101.294 35.765 101.104 35.4725C100.915 35.18 100.619 34.985 100.226 34.8875C100.612 34.715 100.892 34.445 100.991 34.175C101.104 33.8975 101.127 33.725 101.127 33.545C101.127 33.08 100.945 32.72 100.589 32.4575C100.233 32.195 99.7787 32.0675 99.2182 32.0675H97.0899V37.94ZM97.7034 32.63H99.1652C99.9226 32.63 100.498 32.945 100.498 33.6125C100.498 34.235 100.051 34.6775 99.1198 34.6775H97.7034V32.63ZM97.7034 35.225H99.1955C99.7105 35.225 100.157 35.3075 100.498 35.645C100.672 35.81 100.756 36.02 100.756 36.2825C100.756 36.665 100.612 36.9425 100.316 37.115C100.029 37.2875 99.6954 37.3775 99.3091 37.3775H97.7034V35.225ZM106.894 32.0675V35.69C106.894 36.7925 106.333 37.4225 105.311 37.4225C104.319 37.4225 103.682 36.875 103.682 35.6525V32.0675H103.061V35.6825C103.061 36.3875 103.258 36.95 103.645 37.37C104.031 37.79 104.584 38 105.288 38C106.689 38 107.515 37.1375 107.515 35.645V32.0675H106.894ZM110.902 37.94H111.53V32.645H113.507V32.0675H108.917V32.645H110.902V37.94ZM118.698 32.0675H114.987V37.94H118.729V37.37H115.608V35.24H118.433V34.67H115.608V32.6375H118.698V32.0675ZM120.509 37.94H122.274C123.16 37.94 123.902 37.6625 124.501 37.115C125.099 36.56 125.402 35.855 125.402 34.9925C125.402 34.16 125.107 33.4625 124.523 32.9075C123.94 32.345 123.19 32.0675 122.274 32.0675H120.509V37.94ZM121.13 32.645H122.244C123.009 32.645 123.615 32.87 124.069 33.3125C124.531 33.755 124.758 34.325 124.758 35.0075C124.758 35.6975 124.523 36.26 124.061 36.7025C123.599 37.145 123.001 37.3625 122.251 37.3625H121.13V32.645ZM129.996 36.44H133.231L133.874 37.94H134.533L131.973 32.0675H131.269L128.709 37.94H129.345L129.996 36.44ZM130.231 35.8775L131.61 32.705L132.988 35.8775H130.231ZM135.877 37.94H137.641C138.528 37.94 139.27 37.6625 139.868 37.115C140.466 36.56 140.769 35.855 140.769 34.9925C140.769 34.16 140.474 33.4625 139.891 32.9075C139.308 32.345 138.558 32.0675 137.641 32.0675H135.877V37.94ZM136.498 32.645H137.611C138.376 32.645 138.982 32.87 139.436 33.3125C139.898 33.755 140.126 34.325 140.126 35.0075C140.126 35.6975 139.891 36.26 139.429 36.7025C138.967 37.145 138.368 37.3625 137.619 37.3625H136.498V32.645ZM144.091 38C144.667 38 145.129 37.8425 145.477 37.52C145.826 37.1975 146 36.8075 146 36.3575C146 35.99 145.864 35.66 145.591 35.3675C145.296 35.045 144.796 34.7975 144.099 34.625C143.198 34.3925 142.834 34.1075 142.834 33.575C142.834 33.2825 142.955 33.0425 143.198 32.855C143.44 32.6675 143.728 32.5775 144.061 32.5775C144.712 32.5775 145.167 32.8925 145.417 33.515L145.947 33.2225C145.667 32.48 145.015 32 144.076 32C143.561 32 143.122 32.15 142.758 32.4425C142.395 32.735 142.213 33.1175 142.213 33.605C142.213 34.4225 142.773 34.94 143.985 35.2325C144.894 35.45 145.364 35.8025 145.364 36.4025C145.364 36.7025 145.243 36.95 144.993 37.1375C144.75 37.325 144.447 37.4225 144.091 37.4225C143.326 37.4225 142.879 37.0175 142.577 36.29L142.039 36.5675C142.402 37.52 143.084 38 144.091 38Z" fill="black"/>
</svg>
